<svg width="564" height="83" viewBox="0 0 564 83" fill="none" xmlns="http://www.w3.org/2000/svg">
<path d="M31.48 82.28C27.128 82.28 23.0747 81.512 19.32 79.976C15.5653 78.3547 12.2373 75.88 9.336 72.552C6.52 69.224 4.30133 65 2.68 59.88C1.05867 54.76 0.248 48.6587 0.248 41.576C0.248 35.3467 0.845334 29.928 2.04 25.32C3.23467 20.6267 4.856 16.7013 6.904 13.544C8.952 10.3867 11.2987 7.86933 13.944 5.992C16.5893 4.11466 19.3627 2.74933 22.264 1.896C25.1653 1.04266 28.0667 0.615997 30.968 0.615997C36.7707 0.615997 41.72 2.06666 45.816 4.96799C49.912 7.78399 52.984 11.5813 55.032 16.36L47.352 19.944L46.2 20.456L45.816 19.56C46.072 18.8773 46.072 18.28 45.816 17.768C45.56 17.1707 45.0907 16.2747 44.408 15.08C42.2747 12.1787 40.056 10.2587 37.752 9.32C35.5333 8.296 33.1867 7.784 30.712 7.784C27.384 7.784 24.3547 8.552 21.624 10.088C18.9787 11.5387 16.6747 13.7147 14.712 16.616C12.8347 19.432 11.384 22.888 10.36 26.984C9.42133 31.08 8.952 35.7307 8.952 40.936C8.952 45.9707 9.50667 50.536 10.616 54.632C11.8107 58.728 13.3893 62.2693 15.352 65.256C17.4 68.2427 19.7467 70.5467 22.392 72.168C25.1227 73.7893 28.024 74.6 31.096 74.6C33.2293 74.6 35.2773 74.216 37.24 73.448C39.288 72.68 41.1653 71.5707 42.872 70.12C44.5787 68.584 46.0293 66.8347 47.224 64.872L53.88 69.224C51.32 73.4907 48.248 76.7333 44.664 78.952C41.08 81.1707 36.6853 82.28 31.48 82.28ZM91 82.024C85.7093 82.024 81.016 80.744 76.92 78.184C72.9093 75.5387 69.752 71.9547 67.448 67.432C65.144 62.824 63.992 57.576 63.992 51.688C63.992 45.7147 65.144 40.4667 67.448 35.944C69.752 31.336 72.9093 27.752 76.92 25.192C81.016 22.5467 85.7093 21.224 91 21.224C96.2907 21.224 100.941 22.5467 104.952 25.192C109.048 27.752 112.248 31.336 114.552 35.944C116.856 40.4667 118.008 45.7147 118.008 51.688C118.008 57.576 116.856 62.824 114.552 67.432C112.248 71.9547 109.048 75.5387 104.952 78.184C100.941 80.744 96.2907 82.024 91 82.024ZM91 74.344C94.4133 74.344 97.4 73.3627 99.96 71.4C102.52 69.4373 104.525 66.7493 105.976 63.336C107.512 59.9227 108.28 55.9973 108.28 51.56C108.28 47.1227 107.512 43.1973 105.976 39.784C104.525 36.3707 102.52 33.7253 99.96 31.848C97.4 29.8853 94.4133 28.904 91 28.904C87.672 28.904 84.6853 29.8853 82.04 31.848C79.48 33.7253 77.432 36.3707 75.896 39.784C74.4453 43.1973 73.72 47.1227 73.72 51.56C73.72 55.9973 74.4453 59.9227 75.896 63.336C77.432 66.7493 79.48 69.4373 82.04 71.4C84.6853 73.3627 87.672 74.344 91 74.344ZM132.216 81V22.504H141.176V32.872C142.712 30.4827 144.504 28.4347 146.552 26.728C148.6 24.936 150.861 23.5707 153.336 22.632C155.811 21.608 158.371 21.096 161.016 21.096C164.259 21.096 167.16 21.9067 169.72 23.528C172.28 25.1493 174.328 27.752 175.864 31.336C177.4 34.92 178.168 39.656 178.168 45.544V81H169.208V45.8C169.208 41.704 168.739 38.4613 167.8 36.072C166.861 33.5973 165.581 31.848 163.96 30.824C162.339 29.7147 160.504 29.16 158.456 29.16C156.493 29.16 154.488 29.5867 152.44 30.44C150.477 31.2933 148.643 32.5307 146.936 34.152C145.229 35.688 143.821 37.5653 142.712 39.784C141.688 42.0027 141.176 44.52 141.176 47.336V81H132.216ZM219.128 82.28C215.885 82.28 212.771 81.9387 209.784 81.256C206.883 80.5733 204.109 79.5493 201.464 78.184C198.904 76.8187 196.515 75.112 194.296 73.064L199.416 64.36L200.184 63.208L200.952 63.72C201.123 64.4027 201.293 65.128 201.464 65.896C201.72 66.5787 202.317 67.432 203.256 68.456C205.048 70.248 207.181 71.7413 209.656 72.936C212.216 74.0453 215.459 74.6 219.384 74.6C222.541 74.6 225.187 74.216 227.32 73.448C229.539 72.68 231.245 71.6133 232.44 70.248C233.635 68.7973 234.232 67.1333 234.232 65.256C234.232 63.976 233.976 62.8667 233.464 61.928C232.952 60.904 232.099 59.9653 230.904 59.112C229.795 58.2587 228.301 57.4053 226.424 56.552C224.547 55.6987 222.243 54.8453 219.512 53.992C215.075 52.712 211.192 51.2187 207.864 49.512C204.536 47.8053 201.976 45.8427 200.184 43.624C198.392 41.32 197.496 38.7173 197.496 35.816C197.496 32.8293 198.307 30.2693 199.928 28.136C201.549 25.9173 203.939 24.2107 207.096 23.016C210.339 21.736 214.307 21.096 219 21.096C221.731 21.096 224.205 21.3093 226.424 21.736C228.643 22.0773 230.691 22.632 232.568 23.4C234.445 24.168 236.152 25.1493 237.688 26.344C239.309 27.4533 240.845 28.776 242.296 30.312L237.048 36.712L236.152 37.736L235.512 37.096C235.427 36.4133 235.213 35.7733 234.872 35.176C234.616 34.4933 234.019 33.6827 233.08 32.744C231.117 31.208 228.899 30.056 226.424 29.288C223.949 28.4347 221.56 28.008 219.256 28.008C215.843 28.008 212.899 28.6053 210.424 29.8C207.949 30.9947 206.712 32.8293 206.712 35.304C206.712 36.584 207.139 37.864 207.992 39.144C208.931 40.3387 210.595 41.576 212.984 42.856C215.373 44.0507 218.787 45.288 223.224 46.568C228.088 48.104 231.971 49.6827 234.872 51.304C237.859 52.84 239.992 54.632 241.272 56.68C242.637 58.728 243.32 61.16 243.32 63.976C243.32 67.2187 242.424 70.248 240.632 73.064C238.925 75.88 236.28 78.1413 232.696 79.848C229.112 81.4693 224.589 82.28 219.128 82.28ZM285.816 82.28C281.549 82.28 277.667 81.64 274.168 80.36C270.669 78.9947 267.64 77.032 265.08 74.472C262.605 71.912 260.685 68.7547 259.32 65C257.955 61.16 257.272 56.808 257.272 51.944C257.272 46.9947 257.955 42.6 259.32 38.76C260.771 34.92 262.691 31.72 265.08 29.16C267.555 26.5147 270.413 24.5093 273.656 23.144C276.984 21.7787 280.483 21.096 284.152 21.096C287.48 21.096 290.595 21.6507 293.496 22.76C296.397 23.8693 298.915 25.576 301.048 27.88C303.181 30.0987 304.845 32.9573 306.04 36.456C307.32 39.9547 307.96 44.0933 307.96 48.872C307.96 49.5547 307.917 50.28 307.832 51.048C307.832 51.7307 307.789 52.4133 307.704 53.096H266.104C266.275 56.8507 266.915 60.136 268.024 62.952C269.133 65.6827 270.584 67.944 272.376 69.736C274.168 71.4427 276.216 72.7227 278.52 73.576C280.909 74.4293 283.427 74.856 286.072 74.856C288.12 74.856 290.04 74.6427 291.832 74.216C293.624 73.704 295.288 72.9787 296.824 72.04C298.445 71.016 299.896 69.7787 301.176 68.328L306.296 73.32C304.675 75.2827 302.797 76.9467 300.664 78.312C298.616 79.6773 296.355 80.6587 293.88 81.256C291.405 81.9387 288.717 82.28 285.816 82.28ZM266.488 45.928H298.616C298.616 43.1973 298.232 40.7653 297.464 38.632C296.781 36.4133 295.757 34.536 294.392 33C293.112 31.3787 291.533 30.184 289.656 29.416C287.864 28.5627 285.816 28.136 283.512 28.136C281.464 28.136 279.501 28.4773 277.624 29.16C275.832 29.8427 274.168 30.952 272.632 32.488C271.096 33.9387 269.773 35.7733 268.664 37.992C267.64 40.2107 266.915 42.856 266.488 45.928ZM324.216 81V22.504H333.176V32.872C334.712 30.4827 336.504 28.4347 338.552 26.728C340.6 24.936 342.861 23.5707 345.336 22.632C347.811 21.608 350.371 21.096 353.016 21.096C356.259 21.096 359.16 21.9067 361.72 23.528C364.28 25.1493 366.328 27.752 367.864 31.336C369.4 34.92 370.168 39.656 370.168 45.544V81H361.208V45.8C361.208 41.704 360.739 38.4613 359.8 36.072C358.861 33.5973 357.581 31.848 355.96 30.824C354.339 29.7147 352.504 29.16 350.456 29.16C348.493 29.16 346.488 29.5867 344.44 30.44C342.477 31.2933 340.643 32.5307 338.936 34.152C337.229 35.688 335.821 37.5653 334.712 39.784C333.688 42.0027 333.176 44.52 333.176 47.336V81H324.216ZM411.128 82.28C407.885 82.28 404.771 81.9387 401.784 81.256C398.883 80.5733 396.109 79.5493 393.464 78.184C390.904 76.8187 388.515 75.112 386.296 73.064L391.416 64.36L392.184 63.208L392.952 63.72C393.123 64.4027 393.293 65.128 393.464 65.896C393.72 66.5787 394.317 67.432 395.256 68.456C397.048 70.248 399.181 71.7413 401.656 72.936C404.216 74.0453 407.459 74.6 411.384 74.6C414.541 74.6 417.187 74.216 419.32 73.448C421.539 72.68 423.245 71.6133 424.44 70.248C425.635 68.7973 426.232 67.1333 426.232 65.256C426.232 63.976 425.976 62.8667 425.464 61.928C424.952 60.904 424.099 59.9653 422.904 59.112C421.795 58.2587 420.301 57.4053 418.424 56.552C416.547 55.6987 414.243 54.8453 411.512 53.992C407.075 52.712 403.192 51.2187 399.864 49.512C396.536 47.8053 393.976 45.8427 392.184 43.624C390.392 41.32 389.496 38.7173 389.496 35.816C389.496 32.8293 390.307 30.2693 391.928 28.136C393.549 25.9173 395.939 24.2107 399.096 23.016C402.339 21.736 406.307 21.096 411 21.096C413.731 21.096 416.205 21.3093 418.424 21.736C420.643 22.0773 422.691 22.632 424.568 23.4C426.445 24.168 428.152 25.1493 429.688 26.344C431.309 27.4533 432.845 28.776 434.296 30.312L429.048 36.712L428.152 37.736L427.512 37.096C427.427 36.4133 427.213 35.7733 426.872 35.176C426.616 34.4933 426.019 33.6827 425.08 32.744C423.117 31.208 420.899 30.056 418.424 29.288C415.949 28.4347 413.56 28.008 411.256 28.008C407.843 28.008 404.899 28.6053 402.424 29.8C399.949 30.9947 398.712 32.8293 398.712 35.304C398.712 36.584 399.139 37.864 399.992 39.144C400.931 40.3387 402.595 41.576 404.984 42.856C407.373 44.0507 410.787 45.288 415.224 46.568C420.088 48.104 423.971 49.6827 426.872 51.304C429.859 52.84 431.992 54.632 433.272 56.68C434.637 58.728 435.32 61.16 435.32 63.976C435.32 67.2187 434.424 70.248 432.632 73.064C430.925 75.88 428.28 78.1413 424.696 79.848C421.112 81.4693 416.589 82.28 411.128 82.28ZM471.288 82.408C468.984 82.408 466.808 82.0667 464.76 81.384C462.712 80.7013 460.835 79.6773 459.128 78.312C457.507 76.8613 456.099 75.0693 454.904 72.936C453.709 70.8027 452.771 68.2427 452.088 65.256C451.491 62.2693 451.192 58.8987 451.192 55.144L451.32 22.504H460.28V55.144C460.28 58.8133 460.621 61.928 461.304 64.488C461.987 67.048 462.925 69.096 464.12 70.632C465.4 72.168 466.851 73.2773 468.472 73.96C470.093 74.6427 471.8 74.984 473.592 74.984C475.64 74.984 477.603 74.6 479.48 73.832C481.357 72.9787 483.021 71.7413 484.472 70.12C486.008 68.4987 487.203 66.408 488.056 63.848C488.909 61.288 489.336 58.2587 489.336 54.76V22.504H498.296V71.912C498.296 73.448 498.339 74.984 498.424 76.52C498.595 77.9707 498.979 79.464 499.576 81H490.744C490.317 79.976 490.019 78.9947 489.848 78.056C489.677 77.032 489.549 76.008 489.464 74.984C489.464 73.96 489.464 72.9787 489.464 72.04C488.525 73.6613 487.416 75.112 486.136 76.392C484.856 77.672 483.405 78.7813 481.784 79.72C480.248 80.5733 478.584 81.2133 476.792 81.64C475.085 82.152 473.251 82.408 471.288 82.408ZM539.128 82.28C535.885 82.28 532.771 81.9387 529.784 81.256C526.883 80.5733 524.109 79.5493 521.464 78.184C518.904 76.8187 516.515 75.112 514.296 73.064L519.416 64.36L520.184 63.208L520.952 63.72C521.123 64.4027 521.293 65.128 521.464 65.896C521.72 66.5787 522.317 67.432 523.256 68.456C525.048 70.248 527.181 71.7413 529.656 72.936C532.216 74.0453 535.459 74.6 539.384 74.6C542.541 74.6 545.187 74.216 547.32 73.448C549.539 72.68 551.245 71.6133 552.44 70.248C553.635 68.7973 554.232 67.1333 554.232 65.256C554.232 63.976 553.976 62.8667 553.464 61.928C552.952 60.904 552.099 59.9653 550.904 59.112C549.795 58.2587 548.301 57.4053 546.424 56.552C544.547 55.6987 542.243 54.8453 539.512 53.992C535.075 52.712 531.192 51.2187 527.864 49.512C524.536 47.8053 521.976 45.8427 520.184 43.624C518.392 41.32 517.496 38.7173 517.496 35.816C517.496 32.8293 518.307 30.2693 519.928 28.136C521.549 25.9173 523.939 24.2107 527.096 23.016C530.339 21.736 534.307 21.096 539 21.096C541.731 21.096 544.205 21.3093 546.424 21.736C548.643 22.0773 550.691 22.632 552.568 23.4C554.445 24.168 556.152 25.1493 557.688 26.344C559.309 27.4533 560.845 28.776 562.296 30.312L557.048 36.712L556.152 37.736L555.512 37.096C555.427 36.4133 555.213 35.7733 554.872 35.176C554.616 34.4933 554.019 33.6827 553.08 32.744C551.117 31.208 548.899 30.056 546.424 29.288C543.949 28.4347 541.56 28.008 539.256 28.008C535.843 28.008 532.899 28.6053 530.424 29.8C527.949 30.9947 526.712 32.8293 526.712 35.304C526.712 36.584 527.139 37.864 527.992 39.144C528.931 40.3387 530.595 41.576 532.984 42.856C535.373 44.0507 538.787 45.288 543.224 46.568C548.088 48.104 551.971 49.6827 554.872 51.304C557.859 52.84 559.992 54.632 561.272 56.68C562.637 58.728 563.32 61.16 563.32 63.976C563.32 67.2187 562.424 70.248 560.632 73.064C558.925 75.88 556.28 78.1413 552.696 79.848C549.112 81.4693 544.589 82.28 539.128 82.28Z" fill="#001D41"/>
</svg>
