<svg width="180" height="180" viewBox="0 0 180 180" fill="none" xmlns="http://www.w3.org/2000/svg">
<rect width="180" height="180" fill="#151515"/>
<path d="M62.48 134.28C58.128 134.28 54.0747 133.512 50.32 131.976C46.5653 130.355 43.2373 127.88 40.336 124.552C37.52 121.224 35.3013 117 33.68 111.88C32.0587 106.76 31.248 100.659 31.248 93.576C31.248 87.3467 31.8453 81.928 33.04 77.32C34.2347 72.6267 35.856 68.7013 37.904 65.544C39.952 62.3867 42.2987 59.8693 44.944 57.992C47.5893 56.1147 50.3627 54.7493 53.264 53.896C56.1653 53.0427 59.0667 52.616 61.968 52.616C67.7707 52.616 72.72 54.0667 76.816 56.968C80.912 59.784 83.984 63.5813 86.032 68.36L78.352 71.944L77.2 72.456L76.816 71.56C77.072 70.8773 77.072 70.28 76.816 69.768C76.56 69.1707 76.0907 68.2747 75.408 67.08C73.2747 64.1787 71.056 62.2587 68.752 61.32C66.5333 60.296 64.1867 59.784 61.712 59.784C58.384 59.784 55.3547 60.552 52.624 62.088C49.9787 63.5387 47.6747 65.7147 45.712 68.616C43.8347 71.432 42.384 74.888 41.36 78.984C40.4213 83.08 39.952 87.7307 39.952 92.936C39.952 97.9707 40.5067 102.536 41.616 106.632C42.8107 110.728 44.3893 114.269 46.352 117.256C48.4 120.243 50.7467 122.547 53.392 124.168C56.1227 125.789 59.024 126.6 62.096 126.6C64.2293 126.6 66.2773 126.216 68.24 125.448C70.288 124.68 72.1653 123.571 73.872 122.12C75.5787 120.584 77.0293 118.835 78.224 116.872L84.88 121.224C82.32 125.491 79.248 128.733 75.664 130.952C72.08 133.171 67.6853 134.28 62.48 134.28ZM103.696 113.288L137.872 69.384L140.816 75.4L106.64 118.792L103.696 113.288ZM122 134.408C116.709 134.408 112.229 132.829 108.56 129.672C104.891 126.515 102.075 121.907 100.112 115.848C98.2347 109.704 97.296 102.28 97.296 93.576C97.296 85.128 98.2347 77.8747 100.112 71.816C102.075 65.672 104.891 60.9787 108.56 57.736C112.229 54.408 116.709 52.744 122 52.744C127.291 52.744 131.771 54.408 135.44 57.736C139.109 60.9787 141.883 65.672 143.76 71.816C145.723 77.8747 146.704 85.128 146.704 93.576C146.704 102.28 145.723 109.704 143.76 115.848C141.883 121.907 139.109 126.515 135.44 129.672C131.771 132.829 127.291 134.408 122 134.408ZM122 126.6C125.243 126.6 128.016 125.32 130.32 122.76C132.624 120.2 134.373 116.488 135.568 111.624C136.848 106.675 137.488 100.659 137.488 93.576C137.488 86.8347 136.848 81.032 135.568 76.168C134.373 71.2187 132.624 67.3787 130.32 64.648C128.016 61.9173 125.243 60.552 122 60.552C118.757 60.552 115.984 61.9173 113.68 64.648C111.376 67.3787 109.584 71.2187 108.304 76.168C107.109 81.032 106.512 86.8347 106.512 93.576C106.512 100.659 107.109 106.675 108.304 111.624C109.584 116.488 111.376 120.2 113.68 122.76C115.984 125.32 118.757 126.6 122 126.6Z" fill="white"/>
</svg>
